/* XPM */
static char *a3eeab0ba8af4acea02a1264388e3b56[] = {
/* columns rows colors chars-per-pixel */
"64 64 192 2 ",
"   c #3B1C06",
".  c #3E1E09",
"X  c #032B06",
"o  c #022F08",
"O  c #03320B",
"+  c #033D14",
"@  c #3E230A",
"#  c #34280F",
"$  c #3E2B0C",
"%  c #3D330E",
"&  c #38390E",
"*  c #2D2D12",
"=  c #352C11",
"-  c #392C12",
";  c #2C3215",
":  c #273819",
">  c #333215",
",  c #3D3B10",
"<  c #401A06",
"1  c #421D0A",
"2  c #43230C",
"3  c #49250F",
"4  c #432A0E",
"5  c #40320F",
"6  c #462611",
"7  c #492512",
"8  c #472912",
"9  c #4A2B13",
"0  c #512E14",
"q  c #443414",
"w  c #4B3215",
"e  c #423C14",
"r  c #4A3A16",
"t  c #4F3318",
"y  c #4B3E18",
"u  c #533117",
"i  c #5D3116",
"p  c #543518",
"a  c #5A351A",
"s  c #523C1A",
"d  c #5D3B1D",
"f  c #60371C",
"g  c #623B1E",
"h  c #693D1E",
"j  c #643E20",
"k  c #034017",
"l  c #034319",
"z  c #044A1E",
"x  c #3B4312",
"c  c #3D4C16",
"v  c #3D5116",
"b  c #395817",
"n  c #3E5319",
"m  c #365D18",
"M  c #3A5D19",
"N  c #346619",
"B  c #3E631C",
"V  c #376D1C",
"C  c #3C6D1D",
"Z  c #2F761B",
"A  c #2E7B1C",
"S  c #34731D",
"D  c #39711E",
"F  c #31791D",
"G  c #034F24",
"H  c #1C4420",
"J  c #025125",
"K  c #035A2C",
"L  c #0D5B2F",
"P  c #0C5D31",
"I  c #026636",
"U  c #096335",
"Y  c #026837",
"T  c #016C3A",
"R  c #086A39",
"E  c #146B3B",
"W  c #1C6D3D",
"Q  c #01703E",
"!  c #3E7220",
"~  c #3D7821",
"^  c #236F3F",
"/  c #286F3F",
"(  c #424216",
")  c #434916",
"_  c #454718",
"`  c #4C4319",
"'  c #444D19",
"]  c #4D4C1B",
"[  c #55441C",
"{  c #5A451E",
"}  c #544D1F",
"|  c #5A491F",
" . c #415117",
".. c #45541B",
"X. c #4B511C",
"o. c #445D1C",
"O. c #4C5E1F",
"+. c #50501E",
"@. c #505B1F",
"#. c #62401F",
"$. c #44651E",
"%. c #49621F",
"&. c #41691E",
"*. c #5E4620",
"=. c #574F21",
"-. c #5B4D21",
";. c #4E5E20",
":. c #565621",
">. c #5C5322",
",. c #535B21",
"<. c #5A5923",
"1. c #644321",
"2. c #6B4624",
"3. c #644C23",
"4. c #6A4A25",
"5. c #6F4928",
"6. c #724927",
"7. c #734D2A",
"8. c #794C29",
"9. c #615123",
"0. c #77502C",
"q. c #7B532E",
"w. c #7E5630",
"e. c #7F5832",
"r. c #466620",
"t. c #4B6220",
"y. c #456A20",
"u. c #4A6A22",
"i. c #526123",
"p. c #437221",
"a. c #1C7241",
"s. c #227241",
"d. c #2D7444",
"f. c #357646",
"g. c #3A7646",
"h. c #317847",
"j. c #3E7D4B",
"k. c #457747",
"l. c #437A4A",
"z. c #487C4C",
"x. c #5B7E4E",
"c. c #81542F",
"v. c #825431",
"b. c #845C34",
"n. c #885E36",
"m. c #876037",
"M. c #896037",
"N. c #85633E",
"B. c #8C6339",
"V. c #91663B",
"C. c #9B633C",
"Z. c #92693D",
"A. c #896641",
"S. c #966D42",
"D. c #9B6C42",
"F. c #9B7042",
"G. c #96784C",
"H. c #997C52",
"J. c #A16F44",
"K. c #A37246",
"L. c #A4764B",
"P. c #A87248",
"I. c #AA794E",
"U. c #A27C50",
"Y. c #AA7F53",
"T. c #518251",
"R. c #598856",
"E. c #648253",
"W. c #6C8454",
"Q. c #7D8255",
"!. c #8F8557",
"~. c #828758",
"^. c #848E5E",
"/. c #8B8C5C",
"(. c #968557",
"). c #9B8456",
"_. c #938C5C",
"`. c #9B8B5B",
"'. c #A48355",
"]. c #AC8256",
"[. c #A68759",
"{. c #AE8758",
"}. c #AE8A5C",
"|. c #B08054",
" X c #BD8054",
".X c #B98D5F",
"XX c #969060",
"oX c #B18E60",
"OX c #CF9769",
"+X c #C5996A",
"@X c #D8A172",
"#X c None",
/* pixels */
"#X#X#X#X#X#X#X#X#X#X#X#X#X#X#X#X#X#X#X#X#X#X#X#X#X#X8 7 7 7 7 7 7 7 7 7 7 7 #X#X#X#X#X#X#X#X#X#X#X#X#X#X#X#X#X#X#X#X#X#X#X#X#X#X",
"#X#X#X#X#X#X#X#X#X#X#X#X#X#X#X#X#X#X#X#X#X#X8 7 7 7 8 q q e e ( ( e e q q 7 7 7 7 8 #X#X#X#X#X#X#X#X#X#X#X#X#X#X#X#X#X#X#X#X#X#X",
"#X#X#X#X#X#X#X#X#X#X#X#X#X#X#X#X#X#X#X#X7 7 7 q c M V V S S S F F S S S C B o.c q 8 7 8 #X#X#X#X#X#X#X#X#X#X#X#X#X#X#X#X#X#X#X#X",
"#X#X#X#X#X#X#X#X#X#X#X#X#X#X#X#X#X8 7 6 q v N F F F S F S S S S ! V ! ! D D D D C o.' q 7 7 8 #X#X#X#X#X#X#X#X#X#X#X#X#X#X#X#X#X",
"#X#X#X#X#X#X#X#X#X#X#X#X#X#X#X#X7 6 e m Z A F F S S S S V S S ! D V V C C C C C C &.! B ..q 7 7 #X#X#X#X#X#X#X#X#X#X#X#X#X#X#X#X",
"#X#X#X#X#X#X#X#X#X#X#X#X#X#X6 7 % m Z F F S Z S S S S S V S V V V V C C C C C C C C &.&.&.&. .q 7 8 #X#X#X#X#X#X#X#X#X#X#X#X#X#X",
"#X#X#X#X#X#X#X#X#X#X#X#X#X6 6 v F A Z Z Z S S S F S S S S S D V V D V C C C &.C B &.&.&.&.&.&.%._ 8 7 #X#X#X#X#X#X#X#X#X#X#X#X#X",
"#X#X#X#X#X#X#X#X#X#X#X8 7 q N A F Z Z S Z S S S V S S b B S ! D D D C C C &.C &.B &.&.&.r.&.&.r.r...w 6 8 #X#X#X#X#X#X#X#X#X#X#X",
"#X#X#X#X#X#X#X#X#X#X8 7 e Z A Z F Z S S S S S S S F ) 1 2 & m ~ C C C C B &.&.&.&.&.$.$.&.$.$.%.t.r.t.q 7 8 #X#X#X#X#X#X#X#X#X#X",
"#X#X#X#X#X#X#X#X#X8 7 c A F S F S F Z S S S D S V ~ & g b.a 1 & &.C y.C C &.! &.&.$.$.y.r.%.r.%.r.t.t.r.` 7 8 #X#X#X#X#X#X#X#X#X",
"#X#X#X#X#X#X#X#X8 7 c A F F Z Z F S S S S S S D V D x a Z.V.q.0 . n C C &.&.&.&.&.$.y.r.r.r.%.t.t.t.;.t.t.` 6 6 #X#X#X#X#X#X#X#X",
"#X#X#X#X#X#X#X8 7 x A Z Z S F Z S S S S S D D S S ~ m 2 n.B.V.V.2.1 , y.&.&.$.&.$.$.$.$.$.%.$.%.r.;.%.O.;.;.y 7 8 #X#X#X#X#X#X#X",
"#X#X#X#X#X#X#X7 , A Z Z S Z S Z S S S S S V D D V D x 2 v.V.M.B.A.w.7 5 $.&.$.$.$.$.$.%.%.%.%.%.O.;.;.t.;.;.;.r 7 #X#X#X#X#X#X#X",
"#X#X#X#X#X#X7 q Z Z Z S Z S S S F V V S D D V V D v 1 w.V.V.B.B.B.V.b.9 $ $.$.$.r.$.r.%.%.t.t.;.t.O.;.;.;.;.;.,.w 8 #X#X#X#X#X#X",
"#X#X#X#X#X8 8 N A F F S S F S S D S V V V D D D C . 6.V.M.M.M.V.B.q.n.n.9 q $.$.%.%.r.%.%.t.t.t.;.O.;.;.;.,.,.,.+.8 7 #X#X#X#X#X",
"#X#X#X#X#X7 c A S F F S S S S S S S S D D D C D v 9 M.B.B.Z.V.w.5.b.B.V.b.1 ) y.%.r.t.%.t.t.;.t.;.;.;.;.i.,.,.,.,.y 8 #X#X#X#X#X",
"#X#X#X#X7 q Z Z Z F S S S S S V S S V S D C C ! , d Z.V.M.0.#.5.M.V.B.M.Z.2.@ %.%.t.t.%.%.i.;.;.;.,.,.;.,.,.,.,.:.,.8 6 #X#X#X#X",
"#X#X#X8 7 M A F S Z S S S S S ! D D V C V C V ~ x a 0.a u #.v.V.B.M.B.B.B.B.9 _ r.%.t.O.O.;.;.;.;.;.@.,.,.,.,.,.:.,.=.6 8 #X#X#X",
"#X#X#X7 q F S S S S D S S V S S D V V C V ! &.x @ 2 u 2.n.Z.V.M.B.B.B.B.M.Z.j $ r.i.i.%.O.O.O.;.,.;.@.,.,.,.,.:.:.:.<.w 6 #X#X#X",
"#X#X#X7 m A Z S S S S S V S V V D C D C ! v . 0 6.n.Z.Z.V.M.M.M.V.M.B.B.M.V.8.5 t.O.O.;.;.;.,.;.,.,.@.,.,.:.:.:.:.:.<.[ 6 #X#X#X",
"#X#X7 q Z S S S S D S V S V D D ! V C ! ) 1 2.V.V.V.M.B.M.B.V.M.B.B.B.B.n.Z.6.@ i.t.i.O.;.,.;.,.@.,.,.,.:.:.:.:.:.>.<.<.w 6 #X#X",
"#X#X7 n F S S Z V S S S D D C D V C C M . 5.Z.M.M.B.M.B.B.B.M.M.M.B.M.V.B.n.q.2 @ ( O.i.;.;.:.;.,.,.,.:.<.,.:.:.>.>.>.<.s 7 #X#X",
"#X8 8 N S S S S S S V C D D C C C C ! % a Z.M.B.B.V.V.Z.V.B.M.V.B.B.V.b.b.B.Z.M.2.3 @ X.i.,.,.;.,.,.,.:.:.:.>.>.:.<.>.>.-.7 8 #X",
"#X7 r S S S S ! D D V D D C C C C p.C 2 q.V.M.V.B.5.p p 7.B.B.Z.V.v.0.5.d u 1.n.Z.B.g . +.i.:.<.:.,.<.:.<.<.:.<.<.>.>.>.>.w 6 #X",
"#X7 c S S D D S V ! S D D C C C C C M 6 b.V.B.b.8   0 d g v.M.7.2.7.b.j j a 1 . 5.Z.Z.d @ ,.,.,.:.:.:.>.:.>.>.<.>.>.9.>.9.s 6 #X",
"#X7 M S V S S V D V D C C D C C C y.$.2 v.V.n.4 0 b.B.n.7.g #.7.n.V.B.M.B.B.n.d   7.Z.m.3 ] ,.:.:.:.:.:.<.>.>.>.>.>.>.-.>.{ 8 #X",
"8 8 B F V S V C V C C C C B C D B &.B $ 6.D.5.1.b.1.v.S.N.n.m.V.B.n.V.Y.{.P.n.V.0.d m.Z.u ` <.:.:.:.>.:.>.>.>.>.>.>.-.-.-.| 8 8 ",
"7 8 V S S ! V D D V C C C C y.B &.&.p.x 9 2.0 0 7 0.Q.a.j._.D.n.B.V.[.j.a.W.U.M.Z.M.M.M.3 ` <.:.:.>.:.:.>.>.-.>.-.9.9.9.9.3.8 6 ",
"7 q D S V D D C C C C C C &.&.&.p.o.% 2 2 w 1.q.V.`.a.W / f.oXV.b.I.l.W / ^ ^.L.n.B.B.n.u @ s <.>.>.>.>.>.>.>.9.-.9.9.9.9.9.w 6 ",
"7 e D D V D D C C C C &.C &.C y.) . u q.n.V.Z.V.V.(.^ E /.OXZ.M.n.I.z.E l.@XL.n.V.m.b.M.B.2.1 r <.<.>.>.>.>.9.>.9.9.9.3.3.9.t 2 ",
"7 y S V D C C C C C y.C y.&.C n . 2.Z.Z.B.B.M.M.b.J./.R Y E.L.n.N.B.}.f.I d.[.n.e.v.M.V.M.Z.w.2 r >.>.>.9.>.>.9.9.9.9.9.9.3.t 8 ",
"7 ( ~ V C D C C C C &.&.&.&.r.. 2.Z.M.M.B.B.V.M.V.G.+Xk.x.a.!.C.M.S.}._.f.k.z.D.e.V.M.M.V.M.V.w.1 [ >.>.-.9.9.9.-.9.3.9.3.9.t 6 ",
"7 ( D C C C C C &.C &.&.&.p._ 3 V.B.B.B.B.B.B.m.D.XXa.^ g.a.).B.M..Xj.W d.s.E.K.M.B.B.B.B.B.M.Z.1.4 9.-.9.9.9.3.9.3.3.9.-.3.p 3 ",
"3 ( D C C &.C C &.C &.&.$.$.5 g V.B.B.B.B.B.B.B.n.K.~.R ^ `.K.M.n.q.H.h.I W.Y.n.B.M.B.B.B.B.M.V.v.2 -.9.-.-.-.9.9.3.3.3.3.3.t 2 ",
"7 q D C C &.C &.C &.$.&.$.$.% 2.V.m.B.B.B.b.B.V.V.b.Y.E._.D.4.4.1.5.C.!.E.Y.b.V.Z.V.M.B.B.B.B.B.n.4 | 9.9.9.3.3.3.9.3.3.4.3.u 6 ",
"6 w D &.C B $.C &.$.$.$.y.&.5 1.Z.V.V.V.Z.q.0 7.b.b.e.A.N.j 7.v.V.S.V.'.{.S.n.w.2.u 4.V.M.B.B.V.w.2 -.9.9.3.9.9.3.3.3.3.3.4.w 8 ",
"6 8 B ! C &.$.&.&.&.&.$.$.u.( u m.w.q.0.6.d   . 2 2 @ 0 h 8.c.v.c.8.6.2.d u 3 2     7.V.M.B.B.V.a 0 9.9.9.3.3.3.3.3.3.3.3.4.w 6 ",
"8 8 B p.&.&.&.&.$.$.$.%.u.o.5 . 4 2 9 0 a 1.3 2 2 1 2 2 > ; # - - = * > . . 1 2 2 2 b.B.B.M.V.0.  4 [ 9.9.3.3.3.3.3.4.4.4.{ 8 6 ",
"#X6  .p.&.&.$.$.$.$.$.y.' . u q.b.m.B.V.V.Z.g . 2 2 1 - Y Q T z + K Q T > 2 2 2 . d V.B.B.B.m.e.0.g 2 w 3.9.3.3.3.4.3.4.3.d 6 #X",
"#X6 _ B &.&.&.$.$.%.y.) 1 2.V.V.B.B.B.B.M.V.e.. 2 2 2 - Y Y l O o O K T > 1 @ 2 . 0.V.M.V.b.b.V.V.V.w.3 3 3.3.3.3.3.3.4.4.p 6 #X",
"#X6 w B &.&.&.%.$.y...< 7.Z.V.M.B.B.B.B.B.M.V.#.. 2 2 - R I O k l I I T > 1 3 . d V.B.B.w.v.V.B.M.m.V.m.4 0 7.3.4.3.4.4.1.0 4 #X",
"#X8 8 o.&.y.r.$.$.%.4 g Z.M.M.B.B.B.B.B.B.B.B.B.0 . 1 - Y Y K o X G Y T > 2 . 9 M.V.M.0.b.V.B.B.B.V.M.V.q.. 3.3.1.1.4.3.1.9 8 #X",
"#X#X7 _ r.%.$.t.$...2 m.V.M.V.M.B.B.B.B.B.B.B.V.B.0   - Y Y Q K O O G Q > < 0 M.V.q.7.M.V.M.B.B.B.B.M.M.V.0 a 3.3.4.4.4.a 6 #X#X",
"#X#X7 w &.r.r.r.u.e i V.M.M.M.V.M.B.B.B.B.B.B.M.B.B.g - Y I + l k + z Q * g V.w.4.c.B.B.M.B.B.B.B.M.V.B.V.d w 3.3.4.4.4.w 8 #X#X",
"#X#X#X7 ' r.t.t.u.e f V.B.B.B.B.B.B.B.B.B.B.B.M.M.V.v.- I T J o X k I T ; 2.5.5.M.V.M.B.B.B.B.B.B.B.B.B.V.j 0 7.4.4.5.d 6 #X#X#X",
"#X#X#X7 r t.t.r.u.e i V.n.B.n.B.B.B.B.B.B.B.B.B.M.V.q.# R Y Q K k Q Y T = f m.V.B.M.B.B.B.B.B.B.B.B.B.M.B.0 t 4.4.4.4.w 6 #X#X#X",
"#X#X#X8 6 ..t.;.%.] 3 n.B.B.B.B.B.B.B.B.B.B.B.B.M.V.b.2 L T I I I Y T U @ b.V.M.B.B.B.B.B.B.B.B.B.B.B.V.q.@ 1.4.2.4.g 8 8 #X#X#X",
"#X#X#X#X6 8 t.o.%.O.2 1.Z.B.B.M.B.B.B.B.M.B.M.B.B.V.Z.2.# P Q T T T U * a V.B.B.B.B.B.B.B.B.B.M.B.n.V.B.0 t 3.2.4.2.9 6 #X#X#X#X",
"#X#X#X#X#X7 ` t.;.t.] 1 5.V.V.V.V.B.B.V.B.V.Z.V.M.v.5.d 3 2 : H H : @ g B.B.B.B.B.V.B.B.V.B.B.B.V.Z.n.0 8 4.2.4.4.p 6 #X#X#X#X#X",
"#X#X#X#X#X8 8 X.i.;.i.` @ 0 2.w.M.M.n.n.v.0.2.a 9 8 p 2.v.w.h i i g q.V.M.m.M.M.n.n.n.n.n.M.M.b.q.1.2 8 4.4.2.4.#.8 8 #X#X#X#X#X",
"#X#X#X#X#X#X8 w ;.;.,.;.:.r 4 6 8 3 3 3 4 . . . 2 2 0 0 8 0 0 w 0 8 0 2 9 3 9 9 9 9 9 9 8 0 7 6 4 9 d 5.4.2.4.2.w 6 #X#X#X#X#X#X",
"#X#X#X#X#X#X#X7 r ;.,.,.,.i.,.:.+.} } +.:.-.-.=.=.=.[ } | | | | | { { { 3.| #.3.#.#.{ *.1.{ *.1.5.4.4.4.4.4.5.u 6 #X#X#X#X#X#X#X",
"#X#X#X#X#X#X#X8 6 y ;.,.,.,.:.,.<.<.<.>.>.<.>.<.-.>.>.9.9.9.9.9.9.9.9.9.3.3.3.4.3.3.3.3.4.4.4.4.4.4.1.4.4.4.a 6 8 #X#X#X#X#X#X#X",
"#X#X#X#X#X#X#X#X8 6 s :.,.,.:.<.:.@.:.>.>.>.>.>.9.-.9.>.>.9.| 9.3.3.3.3.3.3.3.3.4.4.4.4.4.3.3.4.4.4.2.2.4.a 7 8 #X#X#X#X#X#X#X#X",
"#X#X#X#X#X#X#X#X#X8 7 r :.:.:.<.:.>.:.>.>.>.>.9.>.9.-.9.9.9.3.3.3.3.3.3.3.3.4.3.3.4.4.4.4.4.2.4.2.2.4.4.u 8 8 #X#X#X#X#X#X#X#X#X",
"#X#X#X#X#X#X#X#X#X#X8 7 r :.<.:.>.:.>.>.>.>.>.>.9.>.9.9.9.3.-.9.3.3.3.3.3.9.1.3.1.3.4.4.4.4.2.4.2.4.2.u 2 8 #X#X#X#X#X#X#X#X#X#X",
"#X#X#X#X#X#X#X#X#X#X#X8 6 w =.>.>.>.>.>.>.-.>.9.-.9.9.9.3.9.3.3.3.3.3.4.3.3.4.4.3.4.4.2.4.4.2.4.5.1.w 6 8 #X#X#X#X#X#X#X#X#X#X#X",
"#X#X#X#X#X#X#X#X#X#X#X#X#X7 7 ` >.>.>.>.9.>.-.9.9.9.9.-.3.3.3.3.3.3.3.3.4.4.4.4.4.4.4.4.3.2.4.4.a 7 6 #X#X#X#X#X#X#X#X#X#X#X#X#X",
"#X#X#X#X#X#X#X#X#X#X#X#X#X#X8 6 w [ >.-.>.9.-.9.9.3.9.3.3.3.3.3.3.4.3.3.3.4.3.4.4.4.4.2.2.2.g 9 6 8 #X#X#X#X#X#X#X#X#X#X#X#X#X#X",
"#X#X#X#X#X#X#X#X#X#X#X#X#X#X#X#X8 8 t [ 9.9.9.9.9.-.3.9.3.3.3.3.3.3.4.4.#.4.3.2.2.4.4.2.d w 6 8 #X#X#X#X#X#X#X#X#X#X#X#X#X#X#X#X",
"#X#X#X#X#X#X#X#X#X#X#X#X#X#X#X#X#X8 6 6 w s { 3.9.3.3.3.3.3.3.4.3.3.3.2.3.4.3.4.2.1.a w 2 6 8 #X#X#X#X#X#X#X#X#X#X#X#X#X#X#X#X#X",
"#X#X#X#X#X#X#X#X#X#X#X#X#X#X#X#X#X#X#X#X6 6 8 w a [ | 3.3.4.3.3.4.4.4.4.4.#.g a w 8 6 6 #X#X#X#X#X#X#X#X#X#X#X#X#X#X#X#X#X#X#X#X",
"#X#X#X#X#X#X#X#X#X#X#X#X#X#X#X#X#X#X#X#X#X#X8 6 6 6 8 0 w u t t w u u w 8 8 4 6 6 8 #X#X#X#X#X#X#X#X#X#X#X#X#X#X#X#X#X#X#X#X#X#X",
"#X#X#X#X#X#X#X#X#X#X#X#X#X#X#X#X#X#X#X#X#X#X#X#X#X#X8 6 6 8 6 6 6 6 6 6 7 8 #X#X#X#X#X#X#X#X#X#X#X#X#X#X#X#X#X#X#X#X#X#X#X#X#X#X"
};
