/* XPM */
static char *_3f8ddaa1ba94071d83ab0675126a89f[] = {
/* columns rows colors chars-per-pixel */
"32 32 135 2 ",
"   c #3E1A06",
".  c #3F1F09",
"X  c #03340D",
"o  c #003D15",
"O  c #39280F",
"+  c #372B11",
"@  c #3C2A10",
"#  c #3F3518",
"$  c #3C3A1C",
"%  c #4B1F12",
"&  c #44220C",
"*  c #49260E",
"=  c #452411",
"-  c #482311",
";  c #462B13",
":  c #4B2D14",
">  c #532F14",
",  c #453514",
"<  c #4B3315",
"1  c #443A14",
"2  c #4C3B16",
"3  c #4D3C1B",
"4  c #503917",
"5  c #573619",
"6  c #583619",
"7  c #543C1A",
"8  c #5B3B1C",
"9  c #603E1E",
"0  c #653E21",
"q  c #683E21",
"w  c #024319",
"e  c #04481D",
"r  c #3D4C15",
"t  c #3E4D18",
"y  c #3B5317",
"u  c #375C18",
"i  c #3B5C19",
"p  c #356519",
"a  c #3B651B",
"s  c #346A1B",
"d  c #3B6D1D",
"f  c #2E7C1D",
"g  c #35731C",
"h  c #3A711E",
"j  c #31791D",
"k  c #044F23",
"l  c #104B25",
"z  c #025024",
"x  c #0D5028",
"c  c #025B2D",
"v  c #026435",
"b  c #006837",
"n  c #036B3A",
"m  c #3D7220",
"M  c #444315",
"N  c #484217",
"B  c #434B17",
"V  c #444618",
"C  c #4C4319",
"Z  c #454918",
"A  c #4C4D1B",
"S  c #53441C",
"D  c #5A421D",
"F  c #524C1D",
"G  c #59491E",
"H  c #43541A",
"J  c #4B531D",
"K  c #425C1A",
"L  c #4E5B1F",
"P  c #51521E",
"I  c #62401F",
"U  c #44651E",
"Y  c #49621F",
"T  c #416A1F",
"R  c #554323",
"E  c #5A4523",
"W  c #5C4A20",
"Q  c #4E5E20",
"!  c #565721",
"~  c #5C5422",
"^  c #545A21",
"/  c #5A5923",
"(  c #644321",
")  c #6A4524",
"_  c #644C23",
"`  c #6A4A25",
"'  c #6F4F28",
"]  c #724626",
"[  c #704C27",
"{  c #744D2A",
"}  c #7B4E2C",
"|  c #615123",
" . c #7B532E",
".. c #7E5731",
"X. c #4C6320",
"o. c #446C20",
"O. c #496A22",
"+. c #546123",
"@. c #407220",
"#. c #1E7442",
"$. c #327646",
"%. c #3C7747",
"&. c #327847",
"*. c #447C4B",
"=. c #54794B",
"-. c #5B7D4E",
";. c #6A6D43",
":. c #6E7246",
">. c #737E4E",
",. c #84552F",
"<. c #825531",
"1. c #845B34",
"2. c #8A5C36",
"3. c #8E5E38",
"4. c #8A6037",
"5. c #85663F",
"6. c #8D6339",
"7. c #91663C",
"8. c #93693E",
"9. c #9A6A3F",
"0. c #806F45",
"q. c #8E6D43",
"w. c #946D41",
"e. c #9B6F44",
"r. c #827146",
"t. c #8C7548",
"y. c #82794B",
"u. c #8F7C4F",
"i. c #947347",
"p. c #9C7246",
"a. c #997549",
"s. c #9E784D",
"d. c #658454",
"f. c #738152",
"g. c None",
/* pixels */
"g.g.g.g.g.g.g.g.g.g.g.g.- ; , , 1 , ; - g.g.g.g.g.g.g.g.g.g.g.g.",
"g.g.g.g.g.g.g.g.g.= , t i g g h g h a i Z , - g.g.g.g.g.g.g.g.g.",
"g.g.g.g.g.g.g.% # u g f j j g g h d d @.d T H , - g.g.g.g.g.g.g.",
"g.g.g.g.g.g.= y f f g g j p p h h d d d d T o.U V - g.g.g.g.g.g.",
"g.g.g.g.g., p f g g g g g 2 7 r a @.d T T U U X.o.L : g.g.g.g.g.",
"g.g.g.g.; s f j g g g g g M 3.} < u o.T U U U Y X.X.J ; g.g.g.g.",
"g.g.g.= p f g j g g g h p 4 2.8.2.5 y o.U U Y Y Q L X.P ; g.g.g.",
"g.g.% y f g g g g g h h M 2.8.1.1.6.5 K X.X.X.X.Q Q ^ +.C = g.g.",
"g.g.1 j g g g g g h d g 2  .[  .4.6.1.1 U Q Q Q Q Q ^ ^ ^ < g.g.",
"g.- u f s g g g d h a 1 9 { 1.7.6.6.7.7 Y X.Q Q Q ^ ^ ! / S = g.",
"g., g g g g h h h a 2 ,.w.8.6.6.6.6.8.( M Q Q ^ ^ ^ ! ! ~ ~ < g.",
"g.t j g g h d d m r } 8...` 1.7.1. .)  .{ < Q / ! ! ! ~ ~ / 7 g.",
"- i g g h h d d @.M 3. .5 ] ] { ..,.} 5 { ..2 ^ ! ! ~ / ~ ~ D - ",
"; s g h d d d d m r q 8 ] :.;.6.8.y.>.w. .1.2 ^ ~ ~ ~ ~ ~ ~ W : ",
", h h d d d a @.r 6 )  .q.#.d.p.8.$.*.s.3.4.( 2 ~ ~ ~ W ~ | W < ",
"1 d h d d T o.B q 7.8.6.p.-.%.q.e.f.$.r.1.2.w.] 4 / ~ | _ _ _ < ",
", d d d T T T 2 6.6.6.6.p.=.*.q.6.=.$.t.7.6.4.8.8 G | | _ _ _ < ",
"< d d T T U a 8 7.7.1.{ 2.:.5.,.,.p.u.2.{ 1.6.7.( G | _ _ _ _ : ",
"; U T T T o.T , q ) ( . & - 3 E E R > = . ..7.1.: G | | _ _ I : ",
"= H o.U U K < } 1.1.7.5   O v w o v O   5 8.4.1. .5 D ` _ ` 8 ; ",
"g.V T U U 2 ,.7.6.6.6.1.= O v w w n + & <.1.1.6.7.6.5 W ` ` 7 g.",
"g., U O.H ` 8.6.6.6.6.6. .; v k X c , { 1.1.6.6.3.7.[ 8 ` ` > g.",
"g.= J O.B { 6.6.6.6.6.1.8.D b z e b 3 1.2.6.6.6.6.6.{ 8 ' 8 = g.",
"g.g.< X.J 8 8.6.6.6.6.8.w.[ l n n x ) 8.5.6.6.6.7.6.6 _ ` > g.g.",
"g.g.- C X.V 0 <.1.1.<.{ ( 0 9 # $ ( 1.1.1.1.1.1...8 8 { 6 = g.g.",
"g.g.g.; P +.A C 7 C 4 < < 7 D 8 8 8 8 8 8 8 8 8 5 ( { 0 ; g.g.g.",
"g.g.g.g.; P ^ / ^ ~ / | / | ~ ~ W | _ _ ` _ ) ` ` ` ( : g.g.g.g.",
"g.g.g.g.g.; P / ~ ~ ~ ~ _ ~ _ _ _ _ _ _ ` ` _ ` ` 0 ; g.g.g.g.g.",
"g.g.g.g.g.g.; 7 / | ~ ~ | W _ _ _ _ ` ` ` ` ` ` 5 ; g.g.g.g.g.g.",
"g.g.g.g.g.g.g.= < S | | | | _ _ _ ` ` ` [ ) 8 > = g.g.g.g.g.g.g.",
"g.g.g.g.g.g.g.g.g.= > 7 E _ ` _ _ ` W 8 6 < = g.g.g.g.g.g.g.g.g.",
"g.g.g.g.g.g.g.g.g.g.g.g.= ; : : : > ; = g.g.g.g.g.g.g.g.g.g.g.g."
};
