/* XPM */
static char *ed8b6fe3732847fbbf7fb63fafa84232[] = {
/* columns rows colors chars-per-pixel */
"16 16 199 2 ",
"   c #40250D",
".  c #43280F",
"X  c #473715",
"o  c #4A3416",
"O  c #493716",
"+  c #4D3417",
"@  c #4F3417",
"#  c #4E3517",
"$  c #423A15",
"%  c #473B16",
"&  c #413C14",
"*  c #443D16",
"=  c #493B17",
"-  c #46391B",
";  c #4C3B18",
":  c #4C3C1D",
">  c #513017",
",  c #523117",
"<  c #523218",
"1  c #553419",
"2  c #563C1B",
"3  c #543E1B",
"4  c #503F1E",
"5  c #59391B",
"6  c #583A1B",
"7  c #5B3D1D",
"8  c #5A3E1D",
"9  c #5F3E1D",
"0  c #5E3E1E",
"q  c #613F1F",
"w  c #633E1F",
"e  c #3F4415",
"r  c #3D5018",
"t  c #3C5218",
"y  c #3E5519",
"u  c #375E19",
"i  c #365F19",
"p  c #3D581A",
"a  c #3A5C18",
"s  c #3D621B",
"d  c #3F621C",
"f  c #326F1B",
"g  c #3F6B1E",
"h  c #3A6D1D",
"j  c #3E6C1E",
"k  c #3F6C1E",
"l  c #3D6E1E",
"z  c #3E6E1E",
"x  c #32701A",
"c  c #32721C",
"v  c #33721C",
"b  c #35701C",
"n  c #37701C",
"m  c #37701D",
"M  c #34721C",
"N  c #37721D",
"B  c #36731D",
"V  c #33771D",
"C  c #38721D",
"Z  c #3A711E",
"A  c #3B711E",
"S  c #38751E",
"D  c #31791D",
"F  c #32791D",
"G  c #004C20",
"H  c #005125",
"J  c #07552A",
"K  c #08552B",
"L  c #314722",
"P  c #324B24",
"I  c #404016",
"U  c #414016",
"Y  c #434B18",
"T  c #414E19",
"R  c #57471E",
"E  c #58401D",
"W  c #5E451F",
"Q  c #52491C",
"!  c #53491D",
"~  c #524B1C",
"^  c #56491E",
"/  c #574D1F",
"(  c #45521A",
")  c #405419",
"_  c #44541B",
"`  c #47541B",
"'  c #4A531C",
"]  c #4D521D",
"[  c #41591A",
"{  c #405A1A",
"}  c #405B1A",
"|  c #435D1C",
" . c #4F581F",
".. c #4A5C1E",
"X. c #53501E",
"o. c #52531F",
"O. c #54521F",
"+. c #41631D",
"@. c #40671D",
"#. c #43651E",
"$. c #44671F",
"%. c #47661F",
"&. c #4B601F",
"*. c #426B1F",
"=. c #524120",
"-. c #5F4920",
";. c #575120",
":. c #555520",
">. c #5B5021",
",. c #5B5121",
"<. c #5A5321",
"1. c #5F5022",
"2. c #5E5322",
"3. c #5E5223",
"4. c #585721",
"5. c #515B20",
"6. c #555921",
"7. c #555D22",
"8. c #585922",
"9. c #634120",
"0. c #614220",
"q. c #634721",
"w. c #644421",
"e. c #654421",
"r. c #6A4323",
"t. c #694624",
"y. c #604821",
"u. c #654823",
"i. c #664822",
"p. c #674823",
"a. c #614D23",
"s. c #624E22",
"d. c #644C22",
"f. c #664824",
"g. c #614E24",
"h. c #674D24",
"j. c #654F24",
"k. c #694824",
"l. c #6A4B24",
"z. c #6D4B27",
"x. c #684D24",
"c. c #6B4C27",
"v. c #644E2B",
"b. c #6E4F28",
"n. c #714526",
"m. c #754B29",
"M. c #704D29",
"N. c #714D29",
"B. c #724C28",
"V. c #7B4D2C",
"C. c #784F2C",
"Z. c #605123",
"A. c #635023",
"S. c #625123",
"D. c #6D5029",
"F. c #76522C",
"G. c #765630",
"H. c #7E5430",
"J. c #775C36",
"K. c #7B5832",
"L. c #7D5D36",
"P. c #4F6021",
"I. c #4E6221",
"U. c #466920",
"Y. c #77633B",
"T. c #6F6D41",
"R. c #756B41",
"E. c #62794A",
"W. c #607D4D",
"Q. c #737547",
"!. c #71794A",
"~. c #8A5732",
"^. c #855832",
"/. c #865932",
"(. c #865A32",
"). c #835B34",
"_. c #8A5A36",
"`. c #895D34",
"'. c #885E35",
"]. c #8B5C37",
"[. c #895E36",
"{. c #8C5F36",
"}. c #915E3A",
"|. c #816239",
" X c #84673E",
".X c #8B6138",
"XX c #8A6239",
"oX c #8C6138",
"OX c #8D633A",
"+X c #8E623A",
"@X c #8E643A",
"#X c #8F653B",
"$X c #8E663B",
"%X c #91603A",
"&X c #96633A",
"*X c #93673D",
"=X c #94663C",
"-X c #95673D",
";X c None",
/* pixels */
";X;X;X;X;XU t p y T * ;X;X;X;X;X",
";X;X;X& i v v x S z g _ X ;X;X;X",
";X;Xe f F V [ p.p *.$.U...= ;X;X",
";X$ f F b v O.}.C.` %.&.I. .o ;X",
";Xu F Z b a z.).*Xb.| I.5.7.Q ;X",
"U b b Z s F.(.[.[.m.! 5.6.4.<.# ",
"r b h Z } n.v.L.|.J.V.Q 8.<.2.3 ",
"y Z z +.g.~.E.!.Q.W.&Xc./ 2.S.E ",
"y z *.] _.[.Y.Y. XT.(.+XW 1.j.8 ",
"Y *.+.! K.0.  L P . r.+X0.-.x.6 ",
"* #.O._.#X{.: H G - (.XX[.f.f.< ",
";X( <.%X%X-XK.J J G.*X#XoXt.0 ;X",
";Xo ] a.b.f.q 4 E B.b.B.t.9.> ;X",
";X;X; o.:.O.>.a.a.W f.f.e.1 ;X;X",
";X;X;X# R S.a.j.j.k.k.9.> ;X;X;X",
";X;X;X;X;X@ 3 8 0 6 > ;X;X;X;X;X"
};
